# xmcd
#
# Track frame offsets: 
#        150
#        17162
#        39945
#        57357
#        78757
#        93395
#        113450
#        132420
#        153497
#
# Disc length: 2428 seconds
#
# Revision: 3
# Processed by: cddbd v1.5.2PL0 Copyright (c) Steve Scherf et al.
# Submitted via: ExactAudioCopy v0.95b4
#
DISCID=63097a09
DTITLE=Depeche Mode - Some Great Reward
DYEAR=1983
DGENRE=Pop
TTITLE0=Something to do
TTITLE1=Lie to me
TTITLE2=People are people
TTITLE3=It doesn't matter
TTITLE4=Stories of old
TTITLE5=Somebody
TTITLE6=Master and servant
TTITLE7=If you want
TTITLE8=Blasphemous rumours
EXTD=
EXTT0=
EXTT1=
EXTT2=
EXTT3=
EXTT4=
EXTT5=
EXTT6=
EXTT7=
EXTT8=
PLAYORDER=
